<?xml version="1.0" standalone="no"?><!DOCTYPE svg PUBLIC "-//W3C//DTD SVG 1.1//EN" "http://www.w3.org/Graphics/SVG/1.1/DTD/svg11.dtd"><svg t="1778552272940" class="icon" viewBox="0 0 1024 1024" version="1.1" xmlns="http://www.w3.org/2000/svg" p-id="1873" xmlns:xlink="http://www.w3.org/1999/xlink" width="128" height="128"><path d="M741.12 936.6528H289.8432c-113.1008 0-204.8-91.6992-204.8-204.8V284.3136c0-113.1008 91.6992-204.8 204.8-204.8h451.2256c113.1008 0 204.8 91.6992 204.8 204.8v447.5392c0.0512 113.1008-91.648 204.8-204.7488 204.8z" fill="#aaaaf8" p-id="1874"></path><path d="M515.4816 319.6416c-103.8848 0-188.416 84.5312-188.416 188.416 0 103.8848 84.5312 188.416 188.416 188.416s188.416-84.5312 188.416-188.416c0-103.8848-84.5312-188.416-188.416-188.416z m0 300.032c-61.5424 0-111.616-50.0736-111.616-111.616 0-61.5424 50.0736-111.616 111.616-111.616s111.616 50.0736 111.616 111.616c0 61.5424-50.0736 111.616-111.616 111.616z" fill="#FFCD43" p-id="1875"></path><path d="M770.7648 249.6512m-54.272 0a54.272 54.272 0 1 0 108.544 0 54.272 54.272 0 1 0-108.544 0Z" fill="#FFCD43" p-id="1876"></path></svg>